<svg xmlns="http://www.w3.org/2000/svg" width="100" height="150.588" viewBox="0 0 100 150.588"><g transform="translate(-86 0)"><g transform="translate(85.999 0)"><path d="M171.371,85.345a50.087,50.087,0,1,0-41.257,14.278v16.742h-11.77a5.883,5.883,0,1,0,0,11.766h11.77V144.7a5.885,5.885,0,0,0,11.771,0V128.131h11.77a5.883,5.883,0,1,0,0-11.766h-11.77V99.623A49.788,49.788,0,0,0,171.371,85.345Zm-62.421-8.32a38.247,38.247,0,1,1,54.1,0A38.276,38.276,0,0,1,108.951,77.024Z" transform="translate(-86 0.001)" fill="#fff"/></g></g></svg>